<?xml version="1.0" encoding="UTF-8" standalone="no"?>
<svg
   xmlns:dc="http://purl.org/dc/elements/1.1/"
   xmlns:cc="http://creativecommons.org/ns#"
   xmlns:rdf="http://www.w3.org/1999/02/22-rdf-syntax-ns#"
   xmlns:svg="http://www.w3.org/2000/svg"
   xmlns="http://www.w3.org/2000/svg"
   xmlns:sodipodi="http://sodipodi.sourceforge.net/DTD/sodipodi-0.dtd"
   xmlns:inkscape="http://www.inkscape.org/namespaces/inkscape"
   version="1.1"
   id="svg2"
   xml:space="preserve"
   width="444.24295"
   height="437.31854"
   viewBox="0 0 444.24295 437.31854"
   sodipodi:docname="MapRegionsOrigins - Copie.svg"
   inkscape:version="1.0.1 (3bc2e813f5, 2020-09-07)"><metadata
     id="metadata8"><rdf:RDF><cc:Work
         rdf:about=""><dc:format>image/svg+xml</dc:format><dc:type
           rdf:resource="http://purl.org/dc/dcmitype/StillImage" /></cc:Work></rdf:RDF></metadata><defs
     id="defs6"><clipPath
       clipPathUnits="userSpaceOnUse"
       id="clipPath18"><path
         d="M 0,336 H 341.28 V 0 H 0 Z"
         id="path16" /></clipPath><clipPath
       clipPathUnits="userSpaceOnUse"
       id="clipPath26"><path
         d="M 4.32607,331.715 H 337.509 V 3.72571 H 4.32607 Z"
         id="path24" /></clipPath></defs><sodipodi:namedview
     pagecolor="#ffffff"
     bordercolor="#666666"
     borderopacity="1"
     objecttolerance="10"
     gridtolerance="10"
     guidetolerance="10"
     inkscape:pageopacity="0"
     inkscape:pageshadow="2"
     inkscape:window-width="1920"
     inkscape:window-height="1001"
     id="namedview4"
     inkscape:document-rotation="0"
     showgrid="false"
     inkscape:zoom="1.3100416"
     inkscape:cx="248.87197"
     inkscape:cy="236.70276"
     inkscape:window-x="2551"
     inkscape:window-y="346"
     inkscape:window-maximized="1"
     inkscape:current-layer="svg2" /><g
     transform="matrix(1.3333333,0,0,-1.3333333,309.60883,384.45453)"
     id="g30"
     inkscape:label="occ"><path
       d="m 0,0 c -1.375,-0.668 -2.348,-0.336 -3.058,1.063 -0.978,1.931 -2.492,2.323 -4.217,1.015 -3.624,-2.744 -7.156,-5.612 -10.799,-8.329 -0.528,-0.394 -1.47,-0.224 -2.219,-0.326 -0.915,-0.126 -2.109,0.055 -2.69,-0.457 -1.745,-1.537 -3.538,-3.163 -4.766,-5.101 -1.201,-1.898 -2.186,-4.166 -2.456,-6.371 -0.486,-3.958 -0.48,-7.992 -0.42,-11.991 0.016,-1.015 1.04,-1.999 1.535,-3.029 0.308,-0.642 0.491,-1.342 0.732,-2.016 -0.708,-0.02 -1.419,-0.088 -2.123,-0.047 -1.405,0.082 -2.987,0.702 -4.173,0.251 -3.145,-1.195 -6.117,-2.843 -9.159,-4.31 h -1.639 c -2.694,2.527 -5.578,4.144 -9.261,1.942 -0.494,-0.295 -0.939,-0.691 -1.462,-0.917 -1.138,-0.49 -1.86,-0.537 -2.592,0.968 -0.574,1.18 -2.107,2.07 -3.408,2.674 -1.355,0.628 -2.557,0.998 -2.966,2.747 -0.659,2.823 -3.14,3.803 -5.775,2.667 -0.541,-0.234 -1.456,-0.075 -1.991,0.248 -1.285,0.775 -2.328,2.054 -3.682,2.596 -3.928,1.574 -7.963,2.879 -11.953,4.3 -2.793,0.996 -3.354,0.544 -3.352,-2.387 0,-0.944 -0.506,-1.889 -0.706,-2.576 -3.765,0.256 -6.741,0.292 -9.661,0.711 -2.289,0.327 -4.402,0.696 -6.597,-0.561 -0.514,-0.294 -1.849,0.608 -2.678,1.154 -1.852,1.218 -3.623,2.558 -5.426,3.847 0.054,1.226 -0.294,2.668 0.228,3.643 2.643,4.937 5.512,9.752 8.488,14.934 -1.378,2.765 -2.425,6.236 -5.797,7.843 -1.586,0.755 -1.811,1.38 -1.41,2.988 0.589,2.362 0.725,4.835 1.152,7.242 0.12,0.674 0.423,1.598 0.928,1.864 1.164,0.615 2.503,0.897 3.769,1.313 0.495,-0.8 1.04,-1.682 1.585,-2.563 0.228,-0.009 0.457,-0.018 0.686,-0.028 -0.451,4.398 2.126,4.134 4.888,3.71 0.623,-0.096 1.334,0.055 1.944,0.266 2.946,1.019 5.686,3.302 8.627,1.398 1.264,1.101 2.368,1.925 3.306,2.906 2.029,2.124 5.421,3.903 1.751,7.869 1.171,0.289 1.925,0.608 2.691,0.639 1.996,0.083 2.664,0.955 1.772,2.774 -1.018,2.078 -0.361,3.781 1.075,5.313 1.226,1.31 2.669,2.442 3.752,3.856 2.238,2.92 5.634,5.28 5.125,9.662 -0.206,1.765 0.832,2.34 2.319,2.551 2.426,0.344 4.184,-0.744 5.726,-2.492 0.431,-0.489 1.268,-1.031 1.814,-0.936 2.197,0.381 4.354,1.004 6.525,1.536 0.093,-0.297 0.176,-0.599 0.28,-0.892 1.07,-3.052 2.829,-5.91 2.237,-9.415 -0.083,-0.491 1.119,-1.551 1.883,-1.752 1.203,-0.317 2.56,-0.279 3.813,-0.108 0.996,0.136 2.367,0.421 2.819,1.123 1.292,2.008 2.245,4.243 3.249,6.426 0.998,2.171 2.92,3.15 4.23,1.861 1.923,-1.889 3.999,-3.778 3.82,-6.911 -0.03,-0.538 0.449,-1.106 0.773,-1.843 0.645,0.469 1.205,0.66 1.342,1.014 0.568,1.47 1.228,2.961 1.443,4.501 0.317,2.278 0.833,3.725 3.345,1.955 0.472,0.347 0.896,0.574 1.214,0.903 3.121,3.238 3.403,3.225 5.181,-0.868 0.697,-1.602 1.535,-1.944 3.057,-1.059 0.727,0.423 2.101,0.985 2.397,0.691 2.107,-2.083 4.324,-4.173 5.894,-6.649 1.727,-2.721 2.811,-5.854 4.146,-8.82 0.195,-0.434 0.454,-1.026 0.306,-1.393 -0.671,-1.662 0.336,-2.431 1.595,-2.562 2.063,-0.215 4.165,-0.059 6.25,-0.059 1.51,0.049 3.058,-0.023 4.576,-0.28 0.778,-0.132 1.501,-0.594 2.25,-0.905 0.439,-0.588 1.022,-1.117 1.293,-1.775 1.107,-2.674 2.118,-5.387 3.165,-8.087 0.347,-0.046 0.693,-0.092 1.041,-0.139 C 14.52,17.853 13.382,16.755 12.423,15.519 11.681,14.561 10.774,13.48 10.623,12.362 10.284,9.861 9.79,7.826 7.276,8.068 5.326,5.809 3.683,3.873 2,1.972 1.381,1.272 0.669,0.655 0,0"
       style="fill:#887eae;fill-opacity:1;fill-rule:nonzero;stroke:none"
       id="path28" /></g><g
     transform="matrix(1.3333333,0,0,-1.3333333,215.3035,113.07626)"
     id="g74"
     inkscape:label="cvdl"><path
       d="m 0,0 c 2.862,-2.76 2.168,-6.658 3.265,-9.98 0.49,-1.487 1.732,-2.718 2.587,-4.093 0.654,-1.051 1.226,-2.152 1.857,-3.218 0.454,-0.763 0.77,-1.817 1.452,-2.195 2.075,-1.151 3.985,-2.228 3.297,-5.119 -0.066,-0.282 0.214,-0.645 0.479,-1.365 1.295,0.338 2.777,0.388 3.854,1.076 2.091,1.339 6.537,0.501 7.743,-1.689 0.46,-0.834 1.077,-1.58 1.793,-2.612 -0.214,-0.587 -0.537,-1.473 -0.987,-2.705 4.225,-0.458 8.065,0.336 11.875,1.442 1.67,-2.22 3.374,-4.414 4.957,-6.693 0.168,-0.242 -0.256,-1.096 -0.613,-1.467 -1.361,-1.415 -2.691,-2.701 -2.348,-5.028 0.082,-0.557 -1.235,-1.643 -2.099,-1.952 -2.129,-0.762 -2.593,-1.898 -1.003,-3.454 1.705,-1.669 1.734,-3.226 0.032,-4.88 -0.302,-0.294 -0.463,-0.734 -0.705,-1.132 1.782,-1.648 1.495,-3.413 0.924,-5.348 -0.262,-0.888 -0.147,-2.046 0.199,-2.924 0.883,-2.236 2.144,-4.329 2.955,-6.585 0.529,-1.472 0.734,-3.131 0.734,-4.706 0,-2.687 -0.276,-5.373 -0.436,-8.06 -1.364,-0.293 -2.735,-0.561 -4.092,-0.886 -1.282,-0.306 -2.551,-0.946 -3.825,-0.948 -1.883,-0.002 -3.986,-2.647 -3.524,-5.162 0.461,-2.503 -0.917,-3.208 -2.842,-3.035 -2.914,0.26 -4.697,-0.897 -5.641,-3.567 -2.732,0.153 -5.469,0.471 -8.195,0.4 -1.881,-0.049 -3.838,-0.393 -5.598,-1.045 -2.023,-0.75 -3.792,-1.403 -5.367,1.132 -0.651,-0.776 -1.046,-1.558 -1.68,-1.915 -0.653,-0.368 -1.556,-0.487 -2.321,-0.414 -1.04,0.097 -2.054,0.479 -3.376,0.815 -0.921,1.248 -2.085,3 -3.447,4.584 -0.542,0.632 -1.485,0.973 -2.303,1.302 -2.742,1.104 -3.074,2.083 -1.318,4.901 -0.928,1.126 -2.026,2.264 -2.893,3.556 -1.601,2.384 -2.949,4.947 -4.673,7.231 -0.415,0.549 -1.975,0.594 -2.861,0.346 -1.418,-0.398 -2.666,-1.472 -4.086,-1.752 -0.468,-0.092 -1.651,1.324 -1.796,2.172 -0.297,1.731 -1.23,2.245 -2.708,2.972 -1.813,0.891 -3.19,2.667 -4.755,4.06 1.984,4.968 3.968,9.936 5.968,14.946 2.152,0.908 4.794,2.011 7.422,3.147 0.305,0.132 0.583,0.413 0.781,0.691 3.111,4.396 6.708,8.57 6.673,14.427 -0.002,0.375 0.15,0.764 0.287,1.125 0.696,1.841 0.415,3.34 -1.453,4.312 0.316,0.234 0.631,0.468 0.984,0.73 -0.32,0.671 -0.543,1.207 -0.824,1.71 -0.838,1.497 -0.452,2.556 1.048,3.347 3.917,2.068 4.345,5.47 1.105,8.536 -2.282,2.16 -1.753,4.848 1.189,5.926 1.673,0.613 3.336,1.318 5.066,1.687 1.051,0.224 2.287,0.09 3.322,-0.247 1.518,-0.494 2.931,0.745 3.442,2.389 C -1.653,-3.476 -0.826,-1.738 0,0"
       style="fill:#f89a8a;fill-opacity:1;fill-rule:nonzero;stroke:none"
       id="path72"
       inkscape:label="path72" /></g><g
     transform="matrix(1.3333333,0,0,-1.3333333,444.24296,113.69213)"
     id="g34"
     inkscape:label="graest"><path
       d="m 0,0 c -2.04,-3.046 -3.855,-6.279 -6.181,-9.089 -2.705,-3.269 -4.184,-6.902 -5.104,-10.975 -0.765,-3.387 -1.941,-6.698 -3.161,-9.958 -0.799,-2.133 -1.434,-4.085 -0.048,-6.215 0.295,-0.452 0.163,-1.273 0.043,-1.887 -0.676,-3.454 -1.415,-6.895 -2.11,-10.344 -0.048,-0.246 0.003,-0.598 0.153,-0.786 2.366,-2.992 -0.051,-4.925 -1.638,-6.903 -1.58,-1.969 -3.874,-2.426 -6.256,-1.913 -0.637,0.137 -1.129,0.982 -1.676,1.514 -0.322,0.314 -0.622,0.652 -0.93,0.979 -0.633,1.512 -1.265,3.022 -1.897,4.534 -0.224,-0.076 -0.449,-0.152 -0.673,-0.228 0,0.765 0.143,1.564 -0.034,2.284 -0.253,1.025 -0.459,2.342 -1.177,2.922 -2.722,2.193 -5.6,4.204 -8.526,6.122 -0.582,0.38 -1.632,0.054 -2.465,0.043 -0.883,-0.012 -2.435,-0.293 -2.543,-0.015 -0.902,2.351 -2.461,1.656 -4.204,1.378 -0.973,-0.156 -2.442,0.227 -3.063,0.924 -1.569,1.76 -2.629,1.943 -4.461,0.315 -1.421,-1.262 -2.869,-2.535 -4.469,-3.542 -2.413,-1.519 -3.861,-3.379 -3.625,-6.403 0.037,-0.48 -1.225,-1.6 -1.594,-1.486 -2.527,0.786 -4.389,-0.191 -6.134,-1.831 -1.12,-1.051 -2.288,-1.607 -3.872,-0.713 -2.176,1.229 -4.457,2.277 -6.99,3.553 -0.016,-0.301 -0.077,0.029 0.029,0.292 1.087,2.722 0.346,5.061 -1.151,7.461 -2.805,4.497 -6.675,5.359 -10.842,2.241 -0.627,-0.468 -1.467,-0.806 -2.245,-0.892 -3.436,-0.38 -6.883,-0.745 -10.335,-0.878 -0.767,-0.029 -1.883,0.724 -2.301,1.433 -1.116,1.886 -1.826,4.009 -2.931,5.901 -0.441,0.753 -1.439,1.272 -2.289,1.666 -0.837,0.388 -1.811,0.483 -2.56,0.666 -0.499,5.395 -2.193,7.704 -5.746,8.276 1.042,3.08 2.083,6.161 3.232,9.555 -0.3,0.265 -0.953,0.844 -1.641,1.455 0.207,0.467 0.451,1.019 0.665,1.502 -1.802,2.935 -1.802,2.935 0.077,5.271 1.43,2.051 2.859,4.102 4.288,6.152 -0.242,0.053 -0.485,0.105 -0.727,0.158 0.295,2.024 0.614,4.045 0.872,6.074 0.12,0.954 0.399,2.016 0.118,2.867 -0.607,1.834 -0.342,3.239 1.405,4.103 1.857,0.918 3.793,1.676 6.07,2.667 0.407,-0.188 1.251,-0.58 2.693,-1.249 v 10.078 c 0.673,0.435 1.93,0.863 2.582,1.74 2.483,3.343 2.716,7.216 2.162,11.198 3.879,-0.112 7.79,-0.417 11.432,2.146 -0.425,2.392 0.709,4.333 3.057,5.517 0.495,0.25 1.225,0.036 2.04,0.036 -0.674,-2.529 -1.268,-4.763 -1.903,-7.15 3.394,-1.468 0.782,-4.949 1.901,-6.744 1.568,-0.343 2.803,-0.351 3.762,-0.87 2.723,-1.478 5.473,-2.981 7.93,-4.846 1.263,-0.959 2.094,-2.63 2.816,-4.126 0.754,-1.563 1.725,-2.221 3.191,-1.253 2.617,1.728 5.134,1.484 7.7,0.006 0.979,-0.565 1.895,-1.43 2.943,-1.637 1.16,-0.229 2.69,-0.255 3.612,0.333 1.704,1.085 3.013,1.36 4.597,-0.085 0.499,-0.455 1.431,-0.691 2.128,-0.626 2.312,0.212 3.781,-0.749 4.74,-2.796 1.368,-2.921 2.789,-5.818 4.254,-8.691 0.187,-0.366 0.871,-0.816 1.16,-0.723 0.651,0.212 1.245,0.689 1.768,1.162 0.252,0.229 0.292,0.693 0.623,1.563 1.414,-0.658 2.907,-1.042 4.001,-1.921 2.924,-2.352 4.902,-2.672 8.199,-0.84 1.573,0.874 2.905,0.585 3.866,-0.866 1.864,-2.812 4.539,-3.554 7.747,-3.701 C -7.375,3.802 -5.115,3.056 -2.898,2.429 -1.873,2.139 -0.962,1.447 0,0.937 Z"
       style="fill:#d76b66;fill-opacity:1;fill-rule:nonzero;stroke:none"
       id="path32" /></g><g
     transform="matrix(1.3333333,0,0,-1.3333333,234.91869,312.38413)"
     id="g38"
     inkscape:label="nouaqu"><path
       d="m 0,0 c -2.172,-0.532 -4.328,-1.154 -6.525,-1.536 -0.546,-0.095 -1.383,0.447 -1.815,0.936 -1.542,1.748 -3.3,2.836 -5.725,2.493 -1.487,-0.211 -2.525,-0.787 -2.32,-2.552 0.51,-4.382 -2.886,-6.741 -5.124,-9.661 -1.084,-1.414 -2.526,-2.547 -3.753,-3.857 -1.435,-1.532 -2.092,-3.235 -1.074,-5.313 0.892,-1.819 0.223,-2.691 -1.773,-2.774 -0.766,-0.031 -1.52,-0.349 -2.691,-0.638 3.671,-3.967 0.279,-5.745 -1.75,-7.869 -0.939,-0.982 -2.043,-1.806 -3.306,-2.907 -2.942,1.905 -5.681,-0.379 -8.627,-1.398 -0.611,-0.211 -1.322,-0.362 -1.944,-0.266 -2.762,0.424 -5.34,0.689 -4.888,-3.71 -0.229,0.01 -0.458,0.019 -0.686,0.029 -0.546,0.88 -1.091,1.762 -1.585,2.562 -1.267,-0.416 -2.606,-0.698 -3.769,-1.312 -0.505,-0.267 -0.809,-1.191 -0.928,-1.865 -0.427,-2.407 -0.563,-4.88 -1.152,-7.242 -0.401,-1.607 -0.176,-2.232 1.41,-2.988 3.371,-1.607 4.419,-5.077 5.796,-7.843 -2.975,-5.182 -5.844,-9.997 -8.487,-14.934 -0.522,-0.975 -0.175,-2.417 -0.228,-3.643 -4.038,-2.619 -8.823,-0.981 -11.983,4.152 -5.341,-0.833 -9.482,2.408 -13.096,4.167 -0.927,-1.014 -1.518,-1.66 -2.224,-2.432 -1.45,1.266 -2.133,1.863 -2.889,2.523 0.734,1.204 1.473,2.123 1.879,3.171 0.34,0.88 0.674,2.563 0.346,2.755 -1.131,0.662 -2.597,1.23 -3.857,1.097 -2.351,-0.25 -5.389,1.2 -5.454,2.206 2.393,2.711 4.928,4.674 6.201,7.26 1.508,3.061 2.101,6.622 2.783,10.029 1.216,6.074 2.243,12.186 3.268,18.297 0.64,3.819 1.136,7.663 1.687,11.497 0.038,0.266 0.086,0.581 -0.013,0.812 -1.932,4.523 0.113,8.915 0.433,13.359 0.376,5.233 0.763,10.465 1.246,15.689 0.079,0.853 0.678,1.66 1.193,2.852 3.616,-3.882 6.754,-7.25 9.98,-10.712 0.016,0.202 0.185,0.792 0.091,1.337 -0.992,5.794 -5.285,8.923 -9.709,11.941 -0.637,0.434 -1.297,0.839 -1.903,1.314 -2.726,2.139 -2.768,4.082 -0.165,6.514 2.284,2.133 3.269,5.29 2.197,7.625 -0.559,1.22 -1.492,2.261 -2.156,3.439 -0.929,1.644 -0.703,3.18 0.58,4.601 0.193,0.214 0.048,0.733 0.059,1.109 1.464,0.757 2.958,2.183 4.384,2.119 2.293,-0.104 4.541,-1.193 7.072,-1.944 1.304,0.82 2.769,1.741 3.726,2.343 -0.721,1.492 -1.57,2.402 -1.487,3.217 0.446,4.374 -0.411,8.392 -2.481,12.252 -1.31,2.442 -2.365,5.021 -3.773,8.053 1.426,0 1.989,0.094 2.509,-0.016 2.129,-0.45 3.921,-0.361 5.495,1.599 1.88,2.344 4.606,2.997 7.509,2.352 2.806,-0.623 5.263,-0.667 6.572,2.517 0.121,0.294 0.477,0.492 0.723,0.735 1.566,-1.394 2.943,-3.169 4.755,-4.061 1.479,-0.726 2.412,-1.24 2.708,-2.971 0.145,-0.848 1.329,-2.264 1.797,-2.172 1.42,0.28 2.668,1.354 4.086,1.752 0.886,0.248 2.446,0.203 2.861,-0.346 1.724,-2.285 3.072,-4.847 4.672,-7.231 0.868,-1.292 1.966,-2.43 2.894,-3.556 -1.757,-2.818 -1.425,-3.797 1.317,-4.901 0.819,-0.329 1.761,-0.67 2.304,-1.302 1.361,-1.584 2.526,-3.336 3.447,-4.584 1.322,-0.336 2.336,-0.718 3.376,-0.815 0.765,-0.073 1.667,0.046 2.32,0.414 0.635,0.357 1.029,1.139 1.68,1.915 1.575,-2.536 3.344,-1.882 5.368,-1.132 1.76,0.652 3.717,0.996 5.597,1.045 2.727,0.071 5.463,-0.247 8.196,-0.4 1.01,-1.548 1.021,-3.774 3.429,-4.383 0.934,-0.237 2.056,-1.173 2.39,-2.057 0.978,-2.585 1.635,-5.294 2.355,-7.972 0.711,-2.648 -0.578,-5.132 -3.125,-6.28 -1.477,-0.665 -1.813,-1.686 -0.849,-3.073 0.372,-0.537 0.872,-1.118 0.934,-1.716 0.378,-3.71 0.669,-7.43 0.935,-11.15 0.039,-0.545 -0.212,-1.112 -0.35,-1.768 C 9.702,14.873 8.644,14.94 7.292,15.027 5.075,10.13 2.87,5.257 0.521,0.067 0.672,0.087 0.336,0.044 0,0"
       style="fill:#eb8c96;fill-opacity:1;fill-rule:nonzero;stroke:none"
       id="path36" /></g><g
     transform="matrix(1.3333333,0,0,-1.3333333,309.29629,60.336663)"
     id="g42"
     inkscape:label="hdf"><path
       d="m 0,0 c 0.554,-3.981 0.321,-7.855 -2.162,-11.197 -0.652,-0.878 -1.909,-1.305 -2.582,-1.741 v -10.077 c -1.443,0.669 -2.286,1.06 -2.693,1.249 -2.277,-0.991 -4.213,-1.749 -6.07,-2.668 -1.747,-0.864 -2.012,-2.269 -1.405,-4.103 0.281,-0.851 0.002,-1.912 -0.118,-2.866 -0.258,-2.029 -0.577,-4.05 -0.872,-6.075 0.242,-0.052 0.485,-0.105 0.727,-0.157 -1.429,-2.051 -2.858,-4.101 -4.288,-6.152 -3.631,2.587 -7.382,5.068 -8.494,9.884 -0.896,0.056 -1.759,0.383 -2.31,0.101 -4.049,-2.075 -8.273,-0.877 -12.429,-0.781 -0.598,0.014 -1.175,0.498 -1.778,0.721 -1.871,0.692 -3.731,1.423 -5.631,2.023 -1.207,0.381 -2.477,0.557 -3.718,0.824 0.029,0.235 0.057,0.471 0.086,0.705 -0.831,-0.15 -1.662,-0.305 -2.494,-0.451 -2.996,-0.528 -6.088,-1.844 -8.666,1.057 0.316,0.609 0.632,1.218 0.902,1.737 0.592,0.153 1.101,0.285 1.435,0.371 -0.327,2.265 -0.704,4.364 -0.913,6.478 -0.21,2.133 0.18,4.427 -0.479,6.386 -0.794,2.361 -0.833,4.379 0.199,6.591 0.955,2.049 0.438,4.041 -1.063,5.591 -2.435,2.513 -5.038,4.865 -7.57,7.286 1.095,1.879 2.212,3.746 3.268,5.647 0.212,0.381 0.258,0.886 0.277,1.338 0.336,8.067 0.58,16.139 1.071,24.196 0.063,1.04 1.198,2.3 2.176,2.929 1.446,0.929 3.152,1.54 4.823,2.012 5.419,1.529 10.874,2.934 16.316,4.377 0.176,0.047 0.38,-0.014 0.624,-0.028 0.958,-2.503 3.545,-4.424 2.245,-7.721 -0.267,-0.675 0.788,-2.015 1.456,-2.878 0.782,-1.012 1.957,-1.731 2.693,-2.767 1.303,-1.832 2.731,-1.891 4.471,-0.442 1.331,1.11 3.045,1.76 5.163,2.933 1.219,-3.294 2.467,-6.198 3.36,-9.206 0.997,-3.358 0.856,-3.4 4.234,-2.659 2.769,0.607 5.798,-1.72 5.932,-4.571 0.033,-0.697 0.005,-1.396 0.005,-2.511 1.138,0.086 2.225,0.068 3.27,0.266 3.548,0.674 6.878,0.617 8.937,-2.944 0.471,-0.817 0.229,-2.027 0.396,-3.043 0.189,-1.142 0.512,-2.262 0.694,-3.405 0.121,-0.751 0.436,-1.81 0.077,-2.24 C -2.646,1.923 -2.538,1.143 0,0"
       style="fill:#db7067;fill-opacity:1;fill-rule:nonzero;stroke:none"
       id="path40" /></g><g
     transform="matrix(1.3333333,0,0,-1.3333333,212.78203,54.022263)"
     id="g46"
     inkscape:label="nor"><path
       d="m 0,0 c 2.532,-2.42 5.135,-4.772 7.569,-7.286 1.501,-1.55 2.019,-3.542 1.064,-5.59 -1.032,-2.212 -0.993,-4.23 -0.199,-6.592 0.659,-1.959 0.269,-4.253 0.479,-6.386 0.209,-2.114 0.586,-4.212 0.913,-6.478 -0.334,-0.086 -0.844,-0.218 -1.435,-0.371 -0.27,-0.519 -0.586,-1.128 -0.903,-1.737 -1.243,-1.649 -2.191,-3.728 -3.804,-4.842 -2.168,-1.497 -2.879,-2.465 -1.793,-5.009 -0.826,-1.738 -1.653,-3.476 -2.479,-5.214 -0.511,-1.643 -1.924,-2.883 -3.442,-2.389 -1.034,0.337 -2.271,0.472 -3.322,0.248 -1.73,-0.37 -3.393,-1.075 -5.065,-1.687 -2.943,-1.078 -3.472,-3.767 -1.189,-5.927 3.239,-3.066 2.812,-6.468 -1.106,-8.535 -1.499,-0.792 -1.886,-1.851 -1.048,-3.348 0.281,-0.503 0.504,-1.039 0.824,-1.709 -0.353,-0.262 -0.668,-0.497 -0.983,-0.731 -0.899,0.442 -1.798,0.884 -2.697,1.326 -4.701,0.586 -8.026,2.55 -8.718,7.869 -0.079,0.61 -1.511,1.663 -1.907,1.503 -1.63,-0.66 -3.055,-1.805 -4.65,-2.578 -0.922,-0.448 -2.586,-1.06 -2.948,-0.679 -1.712,1.804 -3.091,3.924 -4.875,6.316 -0.7,-0.515 -1.551,-1.291 -2.536,-1.817 -0.691,-0.369 -1.556,-0.49 -2.357,-0.555 -0.968,-0.078 -2.018,0.252 -2.911,-0.008 -1.836,-0.534 -3.593,-1.344 -5.299,-2.007 -6.24,2.608 -6.24,2.608 -8.655,1.198 -2.122,2.93 -4.207,3.105 -7.465,0.627 -1.866,-1.419 -3.321,-1.09 -4.131,1.075 -0.553,1.48 -0.879,3.044 -1.307,4.57 0.701,0.17 1.402,0.339 2.484,0.601 -0.518,0.805 -0.782,1.441 -1.236,1.88 -2.032,1.965 -2.415,4.273 -1.914,6.978 0.282,1.518 0.098,3.134 0.024,4.701 -0.042,0.889 -0.433,1.77 -0.414,2.65 0.1,4.703 -1.864,8.388 -4.659,12.123 -1.573,2.102 -1.338,5.534 -2.01,8.344 -0.237,0.996 -0.674,1.966 -1.166,2.869 -0.253,0.465 -0.826,0.755 -1.254,1.125 0.029,0.26 0.057,0.52 0.086,0.781 1.05,0 2.149,0.2 3.139,-0.045 1.686,-0.416 3.272,-1.428 4.957,-1.591 1.308,-0.126 2.867,0.393 4.025,1.1 1.917,1.17 3.703,1.478 5.311,-0.144 1.685,-1.698 1.038,-3.398 -0.539,-4.876 -0.135,-0.127 -0.207,-0.32 -0.212,-0.328 1.378,-2.582 2.699,-5.057 4.174,-7.82 -0.371,0.1 -0.257,0.038 -0.228,0.065 3.742,3.567 7.433,0.153 11.093,-0.208 3.867,-0.382 7.645,-1.617 11.507,-2.142 1.718,-0.233 3.641,0.095 5.302,0.662 1.46,0.498 2.731,1.625 4.005,2.581 2.678,2.01 2.604,1.979 0.119,4.149 -0.49,0.428 -0.756,1.658 -0.515,2.281 1.296,3.355 2.939,6.112 6.307,8.357 5.537,3.689 11.64,5.044 17.754,6.835 2.348,0.687 4.44,2.278 6.615,3.516 C -2.379,-1.593 -1.205,-0.77 0,0"
       style="fill:#c04262;fill-opacity:1;fill-rule:nonzero;stroke:none"
       id="path44" /></g><g
     transform="matrix(1.3333333,0,0,-1.3333333,128.15243,138.04173)"
     id="g50"
     inkscape:label="pdll"><path
       d="m 0,0 c 2.416,1.409 2.416,1.409 8.655,-1.199 1.706,0.664 3.463,1.473 5.299,2.008 0.894,0.26 1.943,-0.071 2.911,0.008 0.801,0.065 1.666,0.186 2.358,0.555 0.984,0.526 1.835,1.301 2.535,1.816 1.784,-2.392 3.163,-4.512 4.875,-6.315 0.362,-0.381 2.026,0.231 2.948,0.678 1.595,0.773 3.021,1.919 4.65,2.578 0.396,0.161 1.828,-0.893 1.907,-1.502 0.693,-5.319 4.017,-7.284 8.718,-7.87 0.899,-0.442 1.798,-0.883 2.697,-1.325 1.867,-0.972 2.148,-2.471 1.452,-4.311 -0.137,-0.362 -0.289,-0.75 -0.287,-1.125 0.035,-5.858 -3.562,-10.032 -6.673,-14.428 -0.197,-0.278 -0.476,-0.559 -0.78,-0.691 -2.628,-1.136 -5.271,-2.239 -7.423,-3.147 -2,-5.01 -3.984,-9.978 -5.967,-14.946 -0.248,-0.243 -0.603,-0.441 -0.724,-0.735 -1.309,-3.184 -3.766,-3.14 -6.572,-2.517 -2.904,0.645 -5.629,-0.008 -7.51,-2.352 -1.573,-1.96 -3.365,-2.049 -5.495,-1.599 -0.519,0.11 -1.082,0.017 -2.508,0.017 1.408,-3.033 2.463,-5.612 3.772,-8.054 2.071,-3.859 2.928,-7.878 2.482,-12.252 -0.084,-0.814 0.765,-1.725 1.487,-3.217 -0.957,-0.601 -2.422,-1.523 -3.726,-2.343 -2.531,0.751 -4.779,1.84 -7.072,1.944 -1.426,0.064 -2.921,-1.362 -4.384,-2.118 -1.536,0.015 -3.325,-0.478 -4.562,0.137 -4.079,2.029 -8.097,4.258 -11.837,6.847 -1.237,0.856 -1.375,3.161 -2.344,4.58 -1.354,1.983 -3.003,3.769 -4.551,5.617 -0.892,1.064 -1.834,2.085 -2.693,3.057 1.519,2.753 2.854,5.173 4.563,8.27 -2.366,0.946 -4.443,1.776 -6.768,2.705 0.532,0.664 1.024,1.277 1.703,2.123 v 3.381 c -2.839,-3.617 -5.175,0.878 -7.866,-0.202 -1.32,2.326 -0.768,4.446 0.219,6.549 2.511,0.802 5.068,1.492 7.51,2.467 0.902,0.361 1.92,1.264 2.22,2.145 1.011,2.979 3.001,5.258 5.891,5.131 3.376,-0.148 5.832,1.066 8.293,3.178 1.139,0.979 2.773,2.573 4.731,0.879 1.798,-1.556 3.095,-1.149 3.876,1.158 0.921,2.716 1.459,5.701 4.066,6.331 C 0.05,-11.818 0.025,-5.909 0,0"
       style="fill:#cf6164;fill-opacity:1;fill-rule:nonzero;stroke:none"
       id="path48" /></g><g
     transform="matrix(1.3333333,0,0,-1.3333333,128.15243,138.04173)"
     id="g54"
     inkscape:label="bre"><path
       d="m 0,0 c 0.025,-5.909 0.05,-11.818 0.076,-18.089 -2.607,-0.63 -3.145,-3.615 -4.066,-6.331 -0.781,-2.307 -2.078,-2.714 -3.876,-1.158 -1.958,1.694 -3.592,0.1 -4.731,-0.879 -2.461,-2.112 -4.917,-3.326 -8.293,-3.178 -2.89,0.127 -4.88,-2.152 -5.891,-5.131 -0.3,-0.881 -1.318,-1.784 -2.22,-2.145 -2.442,-0.975 -4.999,-1.665 -7.51,-2.467 -0.592,2.657 -1.166,2.883 -5.177,2.055 -1.06,-0.219 -2.27,-0.837 -3.146,-0.525 -1.01,0.36 -1.657,1.638 -2.593,2.343 -0.7,0.527 -1.744,1.256 -2.402,1.07 -3.441,-0.971 -5.222,1.246 -6.998,3.403 -1.708,2.074 -1.819,2.198 -3.709,1.404 -2.299,0.991 -4.377,1.939 -6.5,2.773 -0.62,0.243 -1.371,0.244 -2.056,0.215 -1.969,-0.085 -3.176,0.904 -4.42,2.359 -0.593,0.695 -2.213,0.649 -3.374,0.675 -0.763,0.016 -1.536,-0.439 -2.305,-0.684 0.054,-0.24 0.108,-0.481 0.161,-0.721 -1.885,-0.439 -3.771,-0.878 -5.042,-1.174 -1.165,2.528 -1.641,4.973 -3.114,6.361 -1.519,1.432 -4.007,1.835 -6.779,2.981 0.811,0.546 1.372,1.085 2.043,1.337 0.964,0.364 1.996,0.586 3.018,0.747 1.667,0.264 3.35,0.43 5.457,0.69 1.301,1.542 -0.368,4.469 -3.244,4.408 -1.127,-0.024 -2.243,-0.584 -3.725,-1.001 -0.088,1.117 -0.205,2.072 -0.23,3.029 -0.051,1.836 -0.794,2.843 -2.75,2.268 -1.827,-0.536 -2.397,0.616 -2.623,1.973 -0.564,3.39 1.445,5.758 4.169,7.663 4.532,3.172 9.867,3.214 14.794,4.769 0.739,0.232 1.86,-0.531 2.725,-0.985 0.67,-0.351 1.216,-0.94 1.721,-1.345 0.359,0.202 0.479,0.231 0.487,0.28 0.551,3.221 2.686,1.754 4.3,1.353 2.323,-0.576 3.212,0.186 2.977,2.539 -0.183,1.831 0.7,3.028 2.592,3.69 0.386,-0.553 0.752,-1.077 1.17,-1.677 2.011,0.481 4.069,0.943 6.109,1.472 2.001,0.519 3.259,-0.116 4.309,-1.969 0.649,-1.146 2.166,-1.765 3.029,-2.835 1.243,-1.543 2.164,-3.343 3.379,-4.911 0.781,-1.007 1.844,-1.794 2.634,-2.541 1.898,1.519 3.44,2.876 5.105,4.06 2.835,2.017 4.131,1.793 6.344,-0.899 0.245,-0.298 0.434,-0.643 0.565,-0.84 2.497,1.486 4.681,2.9 6.99,4.067 0.476,0.241 1.923,-0.277 2.062,-0.717 0.807,-2.552 2.973,-3.385 5.32,-1.976 0.641,0.385 1.55,0.323 2.335,0.466 0.428,-1.526 0.754,-3.091 1.307,-4.57 0.81,-2.165 2.265,-2.494 4.131,-1.076 C -4.207,3.104 -2.122,2.93 0,0"
       style="fill:#ae81b1;fill-opacity:1;fill-rule:nonzero;stroke:none"
       id="path52" /></g><g
     transform="matrix(1.3333333,0,0,-1.3333333,234.91869,312.38413)"
     id="g58"
     inkscape:label="auvrho"><path
       d="m 0,0 c 0.336,0.044 0.672,0.087 0.521,0.067 2.349,5.19 4.554,10.063 6.771,14.96 1.352,-0.087 2.41,-0.154 3.604,-0.23 0.138,0.656 0.389,1.223 0.35,1.768 -0.266,3.72 -0.557,7.44 -0.935,11.15 -0.062,0.598 -0.562,1.179 -0.934,1.716 -0.964,1.387 -0.628,2.408 0.849,3.073 2.547,1.148 3.836,3.632 3.125,6.28 -0.72,2.678 -1.377,5.387 -2.355,7.972 -0.334,0.884 -1.456,1.82 -2.39,2.057 -2.408,0.609 -2.419,2.835 -3.429,4.383 0.943,2.67 2.726,3.827 5.64,3.567 1.925,-0.173 3.303,0.532 2.842,3.035 -0.462,2.515 1.642,5.16 3.525,5.162 1.274,0.002 2.543,0.642 3.825,0.948 1.356,0.325 2.727,0.593 4.092,0.886 0.398,-0.245 0.779,-0.523 1.197,-0.728 1.932,-0.943 3.814,-2.04 5.835,-2.734 1.333,-0.459 2.869,-0.329 4.313,-0.462 0.017,-0.269 0.033,-0.539 0.048,-0.807 0.969,0.842 1.937,1.686 3.375,2.938 1.039,-1.813 2.233,-3.218 2.675,-4.829 0.639,-2.33 2.13,-3.561 4.148,-4.365 3.541,-1.411 4.26,-3.862 1.919,-6.807 -1.844,-2.321 -1.388,-4.015 0.85,-4.923 1.91,0 3.328,0.215 4.654,-0.044 2.798,-0.546 5.195,-0.78 5.946,2.927 0.089,0.442 1.676,0.697 2.599,0.823 0.98,0.135 2.061,-0.214 2.98,0.053 1.597,0.463 2.391,-0.091 2.771,-1.558 0.163,-0.628 0.265,-1.272 0.411,-1.988 0.392,0.039 0.723,0.071 1.397,0.138 0.882,3.133 1.699,6.327 2.719,9.455 0.263,0.805 1.063,1.822 1.794,1.998 1.194,0.286 2.618,0.217 3.792,-0.166 1.659,-0.542 3.402,-1.245 4.705,-2.354 1.726,-1.469 2.991,-3.471 4.623,-5.073 0.384,-0.378 1.777,-0.39 2.13,-0.019 1.335,1.395 2.462,1.427 3.939,0.232 2.265,-1.833 4.033,-1.487 5.901,0.796 0.999,1.22 2.181,2.29 3.281,3.427 2.517,-2.117 2.313,-4.845 -0.514,-6.479 -1.281,-0.74 -2.234,-1.573 -1.609,-3.081 2.927,-1.412 4.775,0.168 6.345,2.1 0.428,0.526 0.43,1.637 0.24,2.382 -0.48,1.891 0.696,3.21 2.651,2.962 0.71,-0.09 1.605,0.137 2.204,0.538 1.758,1.172 7.385,1.64 8.516,0.955 0.712,-1.758 1.222,-3.016 1.854,-4.574 -2.077,-3.907 0.42,-6.55 3.306,-9.207 0.81,-0.746 1.691,-2.357 1.399,-3.15 -0.481,-1.305 -1.703,-2.713 -2.966,-3.253 -1.451,-0.622 -2.304,-1.209 -2.408,-2.797 -0.101,-1.568 0.081,-2.772 1.721,-3.697 1.182,-0.666 2.569,-1.962 2.781,-3.167 0.547,-3.122 2.49,-4.986 4.97,-6.862 -0.922,-2.196 -1.849,-4.401 -2.433,-5.792 -2.17,-1.39 -3.535,-2.522 -5.098,-3.181 -1.183,-0.499 -2.644,-0.292 -3.937,-0.591 -0.874,-0.201 -1.67,-0.735 -2.501,-1.12 -2.196,0.602 -4.152,0.491 -5.346,-2.276 -1.281,2.306 -2.805,3.264 -5.016,2.034 -1.251,-2.393 -0.774,-3.244 1.575,-4.407 0.858,-0.425 1.259,-1.904 1.7,-2.971 0.136,-0.329 -0.284,-0.889 -0.437,-1.308 -4.882,1.102 -12.118,-2.657 -14.625,-7.555 -3.054,-0.432 -4.705,-2.136 -4.143,-5.562 0.058,-0.354 -0.615,-0.829 -0.8,-1.061 -1.192,0.291 -2.065,0.503 -2.834,0.692 -1.587,-2.221 -1.114,-3.829 0.796,-5.21 1.32,-0.955 2.8,-1.818 3.788,-3.057 0.62,-0.779 0.465,-2.176 0.657,-3.297 -0.342,0.138 -0.684,0.277 -1.027,0.414 -0.803,-0.417 -1.704,-0.717 -2.386,-1.283 -1.105,-0.917 -1.722,-0.862 -2.927,0.145 -1.521,1.27 -3.56,1.928 -5.392,2.817 -0.397,0.194 -0.999,0.112 -1.275,0.389 -2.797,2.8 -5.69,2.89 -8.705,0.278 -0.664,1.222 -1.258,2.316 -2,3.681 -1.209,-0.856 -2.168,-1.535 -3.127,-2.215 -0.749,0.312 -1.472,0.773 -2.25,0.905 -1.518,0.257 -3.067,0.329 -4.577,0.281 -2.085,0 -4.186,-0.157 -6.25,0.058 -1.258,0.131 -2.265,0.901 -1.594,2.563 0.147,0.366 -0.112,0.959 -0.306,1.392 -1.336,2.966 -2.42,6.099 -4.146,8.821 -1.571,2.475 -3.788,4.565 -5.894,6.648 -0.297,0.294 -1.671,-0.268 -2.397,-0.69 -1.523,-0.886 -2.361,-0.543 -3.057,1.058 -1.778,4.093 -2.061,4.107 -5.182,0.868 -0.317,-0.329 -0.741,-0.555 -1.214,-0.903 -2.511,1.77 -3.027,0.323 -3.344,-1.955 -0.215,-1.54 -0.875,-3.03 -1.444,-4.501 -0.136,-0.354 -0.696,-0.545 -1.341,-1.014 -0.325,0.738 -0.803,1.305 -0.773,1.843 0.179,3.133 -1.897,5.022 -3.82,6.911 -1.311,1.289 -3.233,0.311 -4.231,-1.861 -1.004,-2.183 -1.957,-4.418 -3.249,-6.426 -0.452,-0.702 -1.822,-0.986 -2.818,-1.123 -1.253,-0.171 -2.61,-0.209 -3.814,0.108 -0.763,0.202 -1.965,1.261 -1.882,1.752 C 3.108,-6.802 1.35,-3.943 0.279,-0.892 0.176,-0.599 0.093,-0.297 0,0"
       style="fill:#da84a3;fill-opacity:1;fill-rule:nonzero;stroke:none"
       id="path56" /></g><g
     transform="matrix(1.3333333,0,0,-1.3333333,372.38882,242.08599)"
     id="g62"
     inkscape:label="bfc"><path
       d="m 0,0 c -1.1,-1.137 -2.281,-2.207 -3.28,-3.427 -1.868,-2.283 -3.637,-2.629 -5.902,-0.796 -1.476,1.196 -2.603,1.163 -3.938,-0.232 -0.354,-0.37 -1.746,-0.358 -2.131,0.019 -1.632,1.602 -2.896,3.604 -4.623,5.074 -1.303,1.108 -3.046,1.811 -4.704,2.353 -1.175,0.383 -2.599,0.452 -3.792,0.166 -0.732,-0.176 -1.531,-1.193 -1.794,-1.998 -1.021,-3.128 -1.838,-6.322 -2.72,-9.455 -0.674,-0.066 -1.005,-0.099 -1.396,-0.138 -0.147,0.716 -0.248,1.361 -0.411,1.989 -0.38,1.466 -1.174,2.02 -2.772,1.557 -0.919,-0.266 -2,0.082 -2.979,-0.052 -0.923,-0.126 -2.51,-0.381 -2.6,-0.824 -0.751,-3.707 -3.147,-3.472 -5.945,-2.926 -1.326,0.258 -2.744,0.044 -4.655,0.044 -2.238,0.908 -2.694,2.601 -0.849,4.922 2.341,2.946 1.622,5.397 -1.919,6.807 -2.019,0.805 -3.51,2.035 -4.149,4.365 -0.442,1.612 -1.635,3.016 -2.674,4.829 -1.439,-1.252 -2.407,-2.095 -3.375,-2.938 -0.016,0.268 -0.032,0.538 -0.048,0.807 -1.445,0.133 -2.981,0.003 -4.314,0.462 -2.02,0.695 -3.902,1.791 -5.835,2.735 -0.418,0.204 -0.799,0.482 -1.197,0.727 0.16,2.687 0.436,5.373 0.436,8.06 0,1.575 -0.205,3.234 -0.734,4.706 -0.811,2.257 -2.072,4.349 -2.955,6.585 -0.346,0.878 -0.461,2.037 -0.199,2.925 0.571,1.934 0.858,3.699 -0.924,5.347 0.242,0.399 0.403,0.838 0.705,1.132 1.702,1.654 1.673,3.211 -0.032,4.88 -1.59,1.557 -1.126,2.692 1.003,3.454 0.864,0.31 2.181,1.396 2.099,1.952 -0.343,2.327 0.987,3.613 2.348,5.028 0.357,0.371 0.781,1.225 0.613,1.467 -1.583,2.279 -3.287,4.474 -4.957,6.693 0.095,0.207 0.136,0.476 0.292,0.612 1.616,1.393 2.656,2.966 2.689,5.271 0.011,0.699 1.282,1.811 2.13,1.984 2.076,0.424 4.243,0.412 6.373,0.575 3.552,-0.572 5.247,-2.88 5.746,-8.276 0.749,-0.183 1.723,-0.277 2.559,-0.665 0.851,-0.395 1.849,-0.913 2.289,-1.666 1.106,-1.892 1.816,-4.016 2.931,-5.901 0.419,-0.71 1.534,-1.462 2.302,-1.433 3.452,0.132 6.898,0.497 10.335,0.878 0.777,0.086 1.618,0.423 2.245,0.892 4.167,3.117 8.037,2.256 10.842,-2.241 1.497,-2.4 2.238,-4.739 1.15,-7.462 -0.105,-0.263 -0.045,-0.593 -0.028,-0.291 2.533,-1.276 4.813,-2.325 6.99,-3.554 1.584,-0.894 2.752,-0.337 3.871,0.714 1.745,1.639 3.608,2.616 6.135,1.831 0.369,-0.115 1.631,1.006 1.594,1.485 -0.237,3.025 1.212,4.885 3.625,6.404 1.599,1.007 3.048,2.279 4.468,3.541 1.832,1.628 2.893,1.446 4.461,-0.315 0.621,-0.697 2.09,-1.079 3.064,-0.924 1.743,0.279 3.302,0.973 4.204,-1.377 0.107,-0.279 1.66,0.002 2.543,0.014 0.833,0.011 1.883,0.338 2.465,-0.043 2.926,-1.917 5.803,-3.929 8.525,-6.122 0.719,-0.58 0.925,-1.897 1.178,-2.922 0.177,-0.72 0.034,-1.519 0.034,-2.283 0.224,0.076 0.448,0.151 0.673,0.227 0.632,-1.511 1.264,-3.022 1.896,-4.533 -0.917,-0.073 -1.834,-0.145 -3.371,-0.266 -0.666,-1.3 -1.573,-3.072 -2.808,-5.486 1.319,0.531 1.886,0.881 2.49,0.962 0.455,0.061 1.121,-0.082 1.388,-0.395 0.222,-0.263 0.195,-1.07 -0.049,-1.349 -3.408,-3.9 -6.694,-7.933 -10.376,-11.56 -3.32,-3.271 -3.584,-3.412 -4.49,-8.067 C 9.561,13.503 8.465,12.283 7.458,11.778 2.553,9.318 0.655,5.083 0,0"
       style="fill:#eb9364;fill-opacity:1;fill-rule:nonzero;stroke:none"
       id="path60" /></g><g
     transform="matrix(1.3333333,0,0,-1.3333333,323.05149,345.77346)"
     id="g66"
     inkscape:label="paca"><path
       d="m 0,0 c 0.959,0.68 1.918,1.359 3.127,2.215 0.742,-1.365 1.337,-2.459 2,-3.681 3.016,2.612 5.908,2.522 8.705,-0.278 0.276,-0.277 0.878,-0.195 1.275,-0.389 1.832,-0.889 3.872,-1.547 5.392,-2.817 1.205,-1.007 1.822,-1.062 2.928,-0.145 0.681,0.566 1.583,0.866 2.386,1.283 0.342,-0.137 0.684,-0.276 1.027,-0.414 -0.193,1.121 -0.037,2.518 -0.657,3.297 -0.989,1.239 -2.468,2.102 -3.788,3.057 -1.911,1.381 -2.383,2.989 -0.796,5.21 0.768,-0.189 1.641,-0.401 2.834,-0.692 0.184,0.232 0.857,0.707 0.799,1.061 -0.562,3.426 1.089,5.13 4.143,5.562 2.508,4.898 9.743,8.657 14.625,7.555 0.153,0.419 0.573,0.979 0.438,1.308 -0.442,1.067 -0.842,2.546 -1.701,2.971 -2.348,1.163 -2.826,2.014 -1.575,4.407 2.211,1.23 3.735,0.272 5.017,-2.034 1.193,2.767 3.149,2.878 5.345,2.276 0.782,-1.426 1.563,-2.852 2.344,-4.276 0.241,0.096 0.484,0.193 0.726,0.291 0,-0.42 0.009,-0.841 -10e-4,-1.261 -0.068,-2.78 1.114,-3.98 3.869,-4.158 0.799,-0.052 2.224,-0.493 2.244,-0.823 0.111,-1.821 2.492,-3.595 0.111,-5.547 -0.809,-0.665 -1.139,-1.898 -1.745,-2.835 -0.497,-0.77 -1.076,-1.487 -1.835,-2.522 0.642,-2.142 1.351,-4.642 2.157,-7.11 0.223,-0.687 0.669,-1.331 1.125,-1.905 2.808,-3.532 10.379,-5.726 14.691,-4.494 0.907,0.259 2.402,0.037 3.01,-0.575 1.101,-1.111 1.44,-2.684 0.132,-4.094 -1.085,-1.169 -2.349,-2.224 -3.193,-3.547 -0.63,-0.988 -0.718,-2.322 -1.043,-3.502 -0.161,-0.586 -0.123,-1.421 -0.505,-1.714 -0.972,-0.746 -2.175,-1.184 -3.206,-1.867 -1.904,-1.262 -3.75,-2.613 -5.623,-3.923 -1.516,-1.06 -3.037,-2.115 -5.04,-3.508 -0.303,-1.806 -1.608,-3.298 -4.385,-3.764 -2.006,-0.337 -3.101,-2.018 -2.858,-4.213 0.277,-2.496 -0.656,-3.75 -3.061,-4.323 -1.817,-0.433 -3.583,-1.074 -5.269,-1.784 -1.842,-0.31 -3.674,-0.718 -5.529,-0.895 -1.228,-0.117 -2.489,0.158 -3.733,0.136 -0.614,-0.011 -1.215,-0.363 -1.836,-0.435 -0.963,-0.11 -2.548,-0.505 -2.811,-0.097 -1.994,3.093 -4.924,4.139 -8.341,4.423 -2.296,0.19 -4.093,0.924 -3.685,3.783 0.021,0.14 -0.066,0.303 -0.125,0.444 -0.059,0.142 -0.147,0.272 -0.4,0.726 -1.122,-0.151 -2.369,-0.261 -3.594,-0.494 -2.492,-0.475 -4.476,0.012 -5.616,2.55 -0.175,0.389 -0.937,0.898 -1.187,0.79 -0.572,-0.247 -1.075,-0.783 -1.452,-1.311 -0.235,-0.33 -0.19,-0.859 -0.318,-1.557 -2.516,0.139 -4.913,0.271 -7.557,0.416 0.217,1.183 0.352,1.918 0.512,2.793 -2.853,0.472 -5.717,0.946 -8.58,1.419 0.67,0.656 1.382,1.273 2.001,1.972 1.683,1.901 3.326,3.837 5.276,6.097 2.514,-0.243 3.008,1.793 3.347,4.294 0.151,1.118 1.058,2.198 1.8,3.156 0.959,1.236 2.096,2.334 3.158,3.491 -0.348,0.047 -0.694,0.093 -1.041,0.14 C 3.411,-7.162 2.4,-4.448 1.293,-1.774 1.021,-1.117 0.439,-0.588 0,0"
       style="fill:#ac80b1;fill-opacity:1;fill-rule:nonzero;stroke:none"
       id="path64" /></g><g
     transform="matrix(1.3333333,0,0,-1.3333333,280.23509,142.43106)"
     id="g70"
     inkscape:label="idf"><path
       d="m 0,0 c -2.13,-0.164 -4.297,-0.151 -6.373,-0.576 -0.848,-0.173 -2.119,-1.284 -2.13,-1.984 -0.033,-2.304 -1.073,-3.877 -2.688,-5.271 -0.157,-0.135 -0.198,-0.404 -0.292,-0.611 -3.811,-1.106 -7.651,-1.9 -11.875,-1.442 0.449,1.232 0.772,2.118 0.986,2.705 -0.716,1.032 -1.333,1.779 -1.793,2.613 -1.206,2.189 -5.651,3.027 -7.743,1.689 -1.076,-0.688 -2.559,-0.739 -3.854,-1.077 -0.264,0.72 -0.545,1.083 -0.478,1.365 0.687,2.891 -1.223,3.968 -3.298,5.119 -0.682,0.378 -0.998,1.432 -1.451,2.196 -0.632,1.065 -1.203,2.167 -1.858,3.217 -0.855,1.375 -2.096,2.606 -2.587,4.093 -1.096,3.322 -0.402,7.22 -3.265,9.98 -1.086,2.544 -0.375,3.512 1.793,5.008 1.614,1.114 2.561,3.193 3.804,4.843 2.579,-2.902 5.671,-1.585 8.666,-1.057 0.832,0.146 1.664,0.3 2.495,0.451 -0.029,-0.235 -0.057,-0.47 -0.086,-0.705 1.241,-0.267 2.511,-0.443 3.717,-0.824 1.901,-0.601 3.761,-1.331 5.632,-2.024 0.603,-0.223 1.18,-0.706 1.778,-0.72 4.156,-0.096 8.379,-1.294 12.429,0.781 0.551,0.282 1.414,-0.045 2.31,-0.102 1.112,-4.815 4.863,-7.296 8.494,-9.883 C 0.454,15.447 0.454,15.447 2.256,12.512 2.042,12.029 1.798,11.477 1.591,11.01 2.279,10.399 2.932,9.82 3.231,9.555 2.083,6.161 1.042,3.081 0,0"
       style="fill:#f3bb77;fill-opacity:1;fill-rule:nonzero;stroke:none"
       id="path68" /></g></svg>
