<?xml version="1.0" encoding="UTF-8" standalone="no"?>
<svg
   xmlns:dc="http://purl.org/dc/elements/1.1/"
   xmlns:cc="http://creativecommons.org/ns#"
   xmlns:rdf="http://www.w3.org/1999/02/22-rdf-syntax-ns#"
   xmlns:svg="http://www.w3.org/2000/svg"
   xmlns="http://www.w3.org/2000/svg"
   xmlns:sodipodi="http://sodipodi.sourceforge.net/DTD/sodipodi-0.dtd"
   xmlns:inkscape="http://www.inkscape.org/namespaces/inkscape"
   data-name="Layer 1"
   id="Layer_1"
   viewBox="0 0 69.931259 70"
   version="1.1"
   sodipodi:docname="pause.svg"
   inkscape:version="1.0.1 (3bc2e813f5, 2020-09-07)"
   width="69.931259"
   height="70">
  <metadata
     id="metadata15">
    <rdf:RDF>
      <cc:Work
         rdf:about="">
        <dc:format>image/svg+xml</dc:format>
        <dc:type
           rdf:resource="http://purl.org/dc/dcmitype/StillImage" />
        <dc:title />
      </cc:Work>
    </rdf:RDF>
  </metadata>
  <defs
     id="defs13">
    <inkscape:path-effect
       effect="mirror_symmetry"
       start_point="95,5"
       end_point="95,95"
       center_point="95,50"
       id="path-effect845"
       is_visible="true"
       lpeversion="1"
       mode="free"
       discard_orig_path="true"
       fuse_paths="false"
       oposite_fuse="false"
       split_items="false" />
  </defs>
  <sodipodi:namedview
     pagecolor="#ffffff"
     bordercolor="#fffff"
     borderopacity="1"
     objecttolerance="10"
     gridtolerance="10"
     guidetolerance="10"
     inkscape:pageopacity="0"
     inkscape:pageshadow="2"
     inkscape:window-width="1606"
     inkscape:window-height="1020"
     id="namedview11"
     showgrid="false"
     inkscape:zoom="5.6568542"
     inkscape:cx="35.032161"
     inkscape:cy="31.311406"
     inkscape:window-x="83"
     inkscape:window-y="0"
     inkscape:window-maximized="0"
     inkscape:current-layer="g843"
     inkscape:document-rotation="0" />
  <g
     id="g843"
     inkscape:path-effect="#path-effect845"
     transform="translate(-94.158985,-3.7936269)"
     style="fill:#000000;fill-opacity:1">
    <g
       id="g1432"
       transform="matrix(0.77700995,0,0,0.77777372,22.02507,-0.09524168)"
       style="fill:#ffffff;fill-opacity:1">
      <path
         d="m 137.83525,5 c 18.20078,0 34.60953,10.963959 41.57427,27.778987 6.96473,16.814993 3.11376,36.169361 -9.75608,49.039202 -12.86984,12.86984 -32.22421,16.720807 -49.0392,9.756078 C 103.79921,84.609524 92.835252,68.200781 92.835252,50 92.835573,25.147319 112.98257,5.0003203 137.83525,5 Z m -30.40552,75.40552 c 14.50565,14.505478 37.23846,16.744196 54.29244,5.347925 C 178.77594,74.357319 185.39953,52.501434 177.54936,33.549602 169.69919,14.59777 149.5611,3.8270251 129.44401,7.8276954 109.32667,11.828417 94.835253,29.486039 94.835252,50 c -0.01525,11.40733 4.517451,22.350148 12.594478,30.40552 z"
         id="path4"
         inkscape:original-d="M 50,5 A 45,45 0 1 0 95,50 45.00058,45.00058 0 0 0 50,5 Z M 80.40552,80.40552 A 42.99965,42.99965 0 1 1 93,50 42.86137,42.86137 0 0 1 80.40552,80.40552 Z"
         style="fill:#ffffff;fill-opacity:1" />
      <path
         d="m 121.83502,31.000234 h 4 c 1.65676,2.32e-4 2.99977,1.343242 3,3 v 32 c -2.5e-4,1.656751 -1.34325,2.999752 -3,3 h -4 c -1.65675,-2.48e-4 -2.99975,-1.343249 -3,-3 v -32 c 2.3e-4,-1.656758 1.34324,-2.999768 3,-3 z m -1,35 c 0.001,0.551828 0.44817,0.9989 1,1 h 4 c 0.55183,-0.0011 0.9989,-0.448172 1,-1 v -32 c -0.001,-0.551844 -0.44816,-0.998938 -1,-1 h -4 c -0.55185,0.0011 -0.99894,0.448156 -1,1 z"
         id="path8"
         inkscape:original-d="m 66.000234,31.000234 h -4 a 3.00042,3.00042 0 0 0 -3,3 v 32 a 3.00045,3.00045 0 0 0 3,3 h 4 a 3.00045,3.00045 0 0 0 3,-3 v -32 a 3.00042,3.00042 0 0 0 -3,-3 z m 1,35 a 1.002,1.002 0 0 1 -1,1 h -4 a 1.002,1.002 0 0 1 -1,-1 v -32 a 1.00193,1.00193 0 0 1 1,-1 h 4 a 1.00193,1.00193 0 0 1 1,1 z"
         style="fill:#ffffff;fill-opacity:1" />
      <path
         d="m 149.08628,31.000234 h 4 c 1.65676,2.32e-4 2.99977,1.343242 3,3 v 32 c -2.5e-4,1.656751 -1.34325,2.999752 -3,3 h -4 c -1.65675,-2.48e-4 -2.99975,-1.343249 -3,-3 v -32 c 2.3e-4,-1.656758 1.34324,-2.999768 3,-3 z m -1,35 c 0.001,0.551828 0.44817,0.9989 1,1 h 4 c 0.55183,-0.0011 0.9989,-0.448172 1,-1 v -32 c -0.001,-0.551844 -0.44816,-0.998938 -1,-1 h -4 c -0.55184,0.0011 -0.99894,0.448156 -1,1 z"
         id="path1427"
         inkscape:original-d="m 38.748972,31.000234 h -4 a 3.00042,3.00042 0 0 0 -3,3 v 32 a 3.00045,3.00045 0 0 0 3,3 h 4 a 3.00045,3.00045 0 0 0 3,-3 v -32 a 3.00042,3.00042 0 0 0 -3,-3 z m 1,35 a 1.002,1.002 0 0 1 -1,1 h -4 a 1.002,1.002 0 0 1 -1,-1 v -32 a 1.00193,1.00193 0 0 1 1,-1 h 4 a 1.00193,1.00193 0 0 1 1,1 z"
         style="fill:#ffffff;fill-opacity:1" />
    </g>
  </g>
</svg>
