<?xml version="1.0" encoding="UTF-8" standalone="no"?>
<svg
   xmlns:dc="http://purl.org/dc/elements/1.1/"
   xmlns:cc="http://creativecommons.org/ns#"
   xmlns:rdf="http://www.w3.org/1999/02/22-rdf-syntax-ns#"
   xmlns:svg="http://www.w3.org/2000/svg"
   xmlns="http://www.w3.org/2000/svg"
   xmlns:sodipodi="http://sodipodi.sourceforge.net/DTD/sodipodi-0.dtd"
   xmlns:inkscape="http://www.inkscape.org/namespaces/inkscape"
   data-name="Layer 1"
   id="Layer_1"
   viewBox="0 0 90.000465 90.000465"
   version="1.1"
   sodipodi:docname="previoussong.svg"
   inkscape:version="1.0.1 (3bc2e813f5, 2020-09-07)"
   width="90.000465"
   height="90.000465">
  <metadata
     id="metadata15">
    <rdf:RDF>
      <cc:Work
         rdf:about="">
        <dc:format>image/svg+xml</dc:format>
        <dc:type
           rdf:resource="http://purl.org/dc/dcmitype/StillImage" />
        <dc:title />
      </cc:Work>
    </rdf:RDF>
  </metadata>
  <defs
     id="defs13">
    <inkscape:path-effect
       effect="mirror_symmetry"
       start_point="95,5"
       end_point="95,95"
       center_point="95,50"
       id="path-effect845"
       is_visible="true"
       lpeversion="1"
       mode="free"
       discard_orig_path="true"
       fuse_paths="false"
       oposite_fuse="false"
       split_items="false" />
  </defs>
  <sodipodi:namedview
     pagecolor="#ffffff"
     bordercolor="#fffff"
     borderopacity="1"
     objecttolerance="10"
     gridtolerance="10"
     guidetolerance="10"
     inkscape:pageopacity="0"
     inkscape:pageshadow="2"
     inkscape:window-width="1920"
     inkscape:window-height="986"
     id="namedview11"
     showgrid="false"
     inkscape:zoom="2.8284271"
     inkscape:cx="107.39532"
     inkscape:cy="36.285228"
     inkscape:window-x="-11"
     inkscape:window-y="-11"
     inkscape:window-maximized="1"
     inkscape:current-layer="Layer_1"
     inkscape:document-rotation="0" />
  <g
     id="g843"
     inkscape:path-effect="#path-effect845"
     transform="translate(-95,-5)">
    <path
       d="m 140,5 c 18.20078,0 34.60952,10.963959 41.57427,27.778987 6.96473,16.814993 3.11376,36.169361 -9.75608,49.039202 -12.86984,12.86984 -32.22421,16.720807 -49.0392,9.756078 C 105.96396,84.609524 95,68.200781 95,50 95.00032,25.147319 115.14732,5.0003203 140,5 Z m -30.40552,75.40552 c 14.50564,14.505478 37.23846,16.744196 54.29244,5.347925 C 180.94069,74.357319 187.56428,52.501434 179.71411,33.549602 171.86394,14.59777 151.72585,3.8270251 131.60876,7.8276954 111.49142,11.828417 97.000001,29.486039 97,50 c -0.01525,11.40733 4.51745,22.350148 12.59448,30.40552 z"
       id="path4"
       inkscape:original-d="M 50,5 A 45,45 0 1 0 95,50 45.00058,45.00058 0 0 0 50,5 Z M 80.40552,80.40552 A 42.99965,42.99965 0 1 1 93,50 42.86137,42.86137 0 0 1 80.40552,80.40552 Z"
       style="fill:#ffffff" />
    <path
       d="m 130.21655,47.76355 28.81592,-18.35889 c 0.40928,-0.26315 0.88537,-0.403554 1.37195,-0.4046 0.678,0.0025 1.32795,0.270911 1.81012,0.74756 0.50611,0.499646 0.78929,1.182309 0.78546,1.89349 v 36.71778 c 0.004,0.711147 -0.27934,1.393778 -0.7854,1.89343 -0.48216,0.476675 -1.13212,0.745102 -1.81012,0.74756 -0.4866,-0.001 -0.96272,-0.14141 -1.372,-0.4046 L 130.21655,52.23645 c -1.62222,-1.049708 -1.62222,-3.423192 0,-4.4729 z m 1.07477,2.78619 28.81586,18.35883 c 0.088,0.05887 0.1914,0.09062 0.2973,0.09131 0.15327,-0.0028 0.29947,-0.06498 0.40771,-0.17353 0.1245,-0.123177 0.19248,-0.292383 0.18781,-0.46746 V 31.64111 c 0.005,-0.175077 -0.0633,-0.344283 -0.18781,-0.46746 -0.10827,-0.108556 -0.25448,-0.170798 -0.40777,-0.17359 -0.10591,7.11e-4 -0.20928,0.03248 -0.2973,0.09137 l -28.81586,18.35889 c -0.38853,0.263509 -0.3885,0.835953 6e-5,1.09942 z"
       id="path6"
       inkscape:original-d="M 59.78345,47.76355 30.96753,29.40466 A 2.54693,2.54693 0 0 0 29.59558,29.00006 2.58829,2.58829 0 0 0 27.78546,29.74762 2.64076,2.64076 0 0 0 27,31.64111 v 36.71778 a 2.64092,2.64092 0 0 0 0.7854,1.89343 2.588,2.588 0 0 0 1.81012,0.74756 2.54632,2.54632 0 0 0 1.372,-0.4046 L 59.78345,52.23645 a 2.66383,2.66383 0 0 0 0,-4.4729 z M 58.70868,50.54974 29.89282,68.90857 A 0.5411,0.5411 0 0 1 29.59552,68.99988 0.59079,0.59079 0 0 1 29.18781,68.82635 0.63378,0.63378 0 0 1 29,68.35889 V 31.64111 a 0.63378,0.63378 0 0 1 0.18781,-0.46746 0.59111,0.59111 0 0 1 0.40777,-0.17359 0.54119,0.54119 0 0 1 0.2973,0.09137 l 28.81586,18.35889 a 0.66419,0.66419 0 0 1 -6e-5,1.09942 z"
       style="fill:#ffffff" />
    <path
       d="m 120,31 h 4 c 1.65676,2.32e-4 2.99977,1.343242 3,3 v 32 c -2.5e-4,1.656751 -1.34325,2.999752 -3,3 h -4 c -1.65675,-2.48e-4 -2.99975,-1.343249 -3,-3 V 34 c 2.3e-4,-1.656758 1.34324,-2.999768 3,-3 z m -1,35 c 0.001,0.551828 0.44817,0.9989 1,1 h 4 c 0.55183,-0.0011 0.9989,-0.448172 1,-1 V 34 c -0.001,-0.551844 -0.44816,-0.998938 -1,-1 h -4 c -0.55184,0.0011 -0.99894,0.448156 -1,1 z"
       id="path8"
       inkscape:original-d="m 70,31 h -4 a 3.00042,3.00042 0 0 0 -3,3 v 32 a 3.00045,3.00045 0 0 0 3,3 h 4 a 3.00045,3.00045 0 0 0 3,-3 V 34 a 3.00042,3.00042 0 0 0 -3,-3 z m 1,35 a 1.002,1.002 0 0 1 -1,1 H 66 A 1.002,1.002 0 0 1 65,66 V 34 a 1.00193,1.00193 0 0 1 1,-1 h 4 a 1.00193,1.00193 0 0 1 1,1 z"
       style="fill:#ffffff" />
  </g>
</svg>
